<svg width="30" height="30" viewBox="0 0 30 30" fill="none" xmlns="http://www.w3.org/2000/svg">
<path fill-rule="evenodd" clip-rule="evenodd" d="M6.86783 3.33334C5.93042 3.33334 5.03141 3.70573 4.36857 4.36857C3.70573 5.03141 3.33334 5.93042 3.33334 6.86783V26.8678C3.33334 27.2862 3.58539 27.6634 3.97195 27.8236C4.35851 27.9837 4.80346 27.8952 5.09932 27.5993L9.79632 22.9023H24.3678C25.3052 22.9023 26.2042 22.5299 26.8671 21.8671C27.5299 21.2042 27.9023 20.3052 27.9023 19.3678V6.86783C27.9023 5.93042 27.5299 5.03141 26.8671 4.36857C26.2042 3.70573 25.3052 3.33334 24.3678 3.33334H6.86783ZM13.4587 17.9581C14.0165 16.4534 15.7081 14.7618 17.2154 14.2015C17.3918 14.1366 17.3918 13.8849 17.2154 13.8201C15.7107 13.2623 14.0191 11.5707 13.4587 10.0634C13.3939 9.88699 13.1422 9.88699 13.0774 10.0634C12.517 11.5682 10.8254 13.2597 9.32068 13.8201C9.14427 13.8849 9.14427 14.1366 9.32068 14.2015C10.8254 14.7592 12.517 16.4508 13.0774 17.9581C13.1422 18.1345 13.3939 18.1345 13.4587 17.9581ZM21.9725 10.4904C21.1351 10.8017 20.1953 11.7414 19.8854 12.5774C19.8494 12.6754 19.7096 12.6754 19.6736 12.5774C19.3622 11.74 18.4225 10.8002 17.5865 10.4904C17.4885 10.4543 17.4885 10.3145 17.5865 10.2785C18.4225 9.96716 19.3622 9.02742 19.6736 8.19145C19.7096 8.09344 19.8494 8.09344 19.8854 8.19145C20.1968 9.02886 21.1365 9.96861 21.9725 10.2785C22.0705 10.3145 22.0705 10.4543 21.9725 10.4904Z" fill="black"/>
</svg>
