<svg width="30" height="30" viewBox="0 0 30 30" fill="none" xmlns="http://www.w3.org/2000/svg">
<path d="M14.679 7.49989C15.7624 7.49989 16.8352 7.71329 17.8361 8.12789C18.8371 8.54249 19.7465 9.15018 20.5126 9.91626C21.2787 10.6823 21.8864 11.5918 22.301 12.5928C22.7156 13.5937 22.929 14.6665 22.929 15.7499L14.679 15.7499L14.679 7.49989Z" fill="black" stroke="black" stroke-width="1.17857" stroke-linejoin="round"/>
<path d="M15 2.2501C14.4082 2.2501 13.9286 2.7298 13.9286 3.32153C13.9286 3.91327 14.4082 4.39296 15 4.39296V2.2501ZM25.7143 15.1072C25.7143 21.0246 20.9173 25.8215 15 25.8215V27.9644C22.1008 27.9644 27.8571 22.2081 27.8571 15.1072H25.7143ZM15 25.8215C9.08264 25.8215 4.28569 21.0246 4.28569 15.1072H2.14284C2.14284 22.2081 7.89917 27.9644 15 27.9644V25.8215ZM15 4.39296C20.9173 4.39296 25.7143 9.18991 25.7143 15.1072H27.8571C27.8571 8.00644 22.1008 2.2501 15 2.2501V4.39296ZM4.28569 15.1072C4.28569 11.3679 6.2004 8.07528 9.10789 6.15698L7.92779 4.36835C4.44479 6.66636 2.14284 10.6177 2.14284 15.1072H4.28569Z" fill="black"/>
<path d="M8.54274 9.77062L9.24425 4.91928L4.39291 4.21776" stroke="black" stroke-width="2.14286" stroke-linecap="round" stroke-linejoin="round"/>
</svg>
