<svg width="152" height="106" viewBox="0 0 152 106" fill="none" xmlns="http://www.w3.org/2000/svg">
<g clip-path="url(#clip0_84_11796)">
<path d="M77.0428 59.4443C77.0428 80.3441 60.1005 97.2864 39.2007 97.2864C18.3009 97.2864 1.35614 80.3441 1.35614 59.4443C1.35614 38.5445 28.3489 8.35611 39.1982 8.35611C49.0366 8.35611 77.0403 38.5445 77.0403 59.4443H77.0428Z" fill="white" stroke="white" stroke-width="2.71234" stroke-miterlimit="10"/>
<path d="M38.4333 54.0616C39.6004 54.0616 40.5465 53.1155 40.5465 51.9484C40.5465 50.7813 39.6004 49.8352 38.4333 49.8352C37.2662 49.8352 36.3201 50.7813 36.3201 51.9484C36.3201 53.1155 37.2662 54.0616 38.4333 54.0616Z" fill="black"/>
<path d="M54.8947 54.0616C56.0618 54.0616 57.0079 53.1155 57.0079 51.9484C57.0079 50.7813 56.0618 49.8352 54.8947 49.8352C53.7277 49.8352 52.7816 50.7813 52.7816 51.9484C52.7816 53.1155 53.7277 54.0616 54.8947 54.0616Z" fill="black"/>
<path d="M40.3319 58.9018C40.8793 62.0851 43.313 63.8974 46.4421 63.9837C48.0843 64.0306 49.687 63.8185 50.9323 62.6522C52.1775 61.4859 52.6558 59.9966 53.1243 58.4875C53.6914 56.6653 50.8361 55.8861 50.2714 57.7009C49.9928 58.596 49.7339 59.5823 49.0953 60.3023C48.39 61.0988 47.421 61.0519 46.4396 61.0248C44.5385 60.973 43.5078 60.0015 43.1824 58.1152C42.8569 56.2289 40.0089 57.0352 40.3295 58.9018H40.3319Z" fill="black"/>
</g>
<g clip-path="url(#clip1_84_11796)">
<path d="M68.5164 66.6684C72.5758 87.1702 92.486 100.499 112.988 96.4398C133.49 92.3805 146.821 72.4697 142.762 51.9679C138.702 31.4661 106.36 7.09539 95.7176 9.20263C86.0665 11.1135 64.4596 46.1661 68.5189 66.6679L68.5164 66.6684Z" fill="black" stroke="white" stroke-width="2.71234" stroke-miterlimit="10"/>
<path d="M103.25 52.918C102.105 53.1446 100.993 52.4003 100.767 51.2555C100.54 50.1106 101.284 48.9988 102.429 48.7721C103.574 48.5455 104.686 49.2898 104.913 50.4346C105.139 51.5795 104.395 52.6913 103.25 52.918Z" fill="white"/>
<path d="M87.102 56.1152C85.9572 56.3419 84.8454 55.5976 84.6187 54.4527C84.392 53.3079 85.1363 52.1961 86.2812 51.9694C87.426 51.7427 88.5379 52.487 88.7645 53.6319C88.9912 54.7767 88.2469 55.8886 87.102 56.1152Z" fill="white"/>
<path d="M102.328 58.0348C102.409 61.2638 100.374 63.5143 97.3209 64.2067C95.719 64.5716 94.1056 64.6749 92.6576 63.7727C91.2096 62.8704 90.451 61.5024 89.6984 60.1131C88.7881 58.4357 91.4378 57.1168 92.3442 58.7874C92.7913 59.6113 93.2369 60.5285 94.0032 61.1108C94.8497 61.7551 95.7912 61.5209 96.7486 61.3037C98.6034 60.8836 99.4258 59.7304 99.3787 57.8168C99.3316 55.9032 102.282 56.141 102.33 58.0343L102.328 58.0348Z" fill="white"/>
</g>
<defs>
<clipPath id="clip0_84_11796">
<rect width="78.399" height="91.6426" fill="white" transform="translate(0 7)"/>
</clipPath>
<clipPath id="clip1_84_11796">
<rect width="78.399" height="91.6426" fill="white" transform="matrix(-0.980956 0.194227 0.194227 0.980956 133.906 0.258972)"/>
</clipPath>
</defs>
</svg>
