<svg width="171" height="19" viewBox="0 0 171 19" fill="none" xmlns="http://www.w3.org/2000/svg">
<path d="M7.18328 18.3047C2.97625 18.3047 0.316093 16.4414 0.128593 13.207L0.116875 12.9961H4.11297L4.13641 13.125C4.34734 14.2148 5.61297 14.9297 7.26531 14.9297C8.97625 14.9297 10.0309 14.2031 10.0309 13.1484V13.1367C10.0309 12.1758 9.28094 11.7305 7.30047 11.3438L5.56609 11.0156C2.21453 10.3945 0.445 8.74219 0.445 6.15234V6.14062C0.445 2.88281 3.26922 0.785156 7.14812 0.785156C11.3903 0.785156 13.7927 2.77734 13.945 5.84766L13.9567 6.09375H9.96062L9.94891 5.96484C9.82 4.85156 8.73016 4.16016 7.18328 4.16016C5.60125 4.16016 4.71062 4.875 4.71062 5.84766V5.85938C4.71062 6.77344 5.5075 7.25391 7.32391 7.59375L9.05828 7.92188C12.6442 8.61328 14.3083 10.0664 14.3083 12.7734V12.7852C14.3083 16.1602 11.6598 18.3047 7.18328 18.3047ZM19.5175 18V4.54688H14.8534V1.08984H28.4706V4.54688H23.8066V18H19.5175ZM37.3244 18.3047C32.9181 18.3047 30.047 15.8086 30.047 12V1.08984H34.3478V11.5898C34.3478 13.5586 35.4025 14.7422 37.3361 14.7422C39.258 14.7422 40.3127 13.5586 40.3127 11.5898V1.08984H44.6134V12C44.6134 15.7969 41.7658 18.3047 37.3244 18.3047ZM46.9398 18V1.08984H53.807C58.9047 1.08984 61.9164 4.04297 61.9164 9.42188V9.44531C61.9164 14.8477 58.9047 18 53.807 18H46.9398ZM51.2406 14.5312H53.2445C56.0453 14.5312 57.5453 12.832 57.5453 9.45703V9.43359C57.5453 6.26953 55.9516 4.55859 53.2445 4.55859H51.2406V14.5312ZM67.5475 18V12.1875L61.7233 1.08984H66.2936L69.6569 8.12109H69.7389L73.1022 1.08984H77.6725L71.8483 12.1875V18H67.5475ZM83.4855 18V1.08984H87.7862V8.53125H87.8683L93.5636 1.08984H98.1691L92.38 8.56641L98.5089 18H93.4581L89.2394 11.332L87.7862 13.2188V18H83.4855ZM99.5814 18V1.08984H111.171V4.54688H103.882V7.88672H110.738V11.1211H103.882V14.543H111.171V18H99.5814ZM113.357 18V1.08984H124.947V4.54688H117.658V7.88672H124.513V11.1211H117.658V14.543H124.947V18H113.357ZM127.133 18V1.08984H134.34C138.113 1.08984 140.551 3.45703 140.551 7.07812V7.10156C140.551 10.7227 138.113 13.043 134.34 13.043H131.433V18H127.133ZM133.308 4.38281H131.433V9.80859H133.308C135.125 9.80859 136.203 8.85938 136.203 7.10156V7.07812C136.203 5.32031 135.125 4.38281 133.308 4.38281ZM142.221 18V1.08984H153.811V4.54688H146.522V7.88672H153.377V11.1211H146.522V14.543H153.811V18H142.221ZM155.996 18V1.08984H163.321C167.41 1.08984 169.719 3.11719 169.719 6.70312V6.72656C169.719 8.89453 168.594 10.7695 166.836 11.5312L170.223 18H165.395L162.489 12.1758H160.297V18H155.996ZM160.297 9.05859H162.84C164.364 9.05859 165.336 8.14453 165.336 6.71484V6.69141C165.336 5.27344 164.328 4.33594 162.817 4.33594H160.297V9.05859Z" fill="white"/>
</svg>
